<svg xmlns="http://www.w3.org/2000/svg" xmlns:xlink="http://www.w3.org/1999/xlink" width="5858" zoomAndPan="magnify" viewBox="0 0 4393.5 2834.999882" height="3779" preserveAspectRatio="xMidYMid meet" version="1.0"><defs><g/></defs><g fill="#ffd80e" fill-opacity="1"><g transform="translate(1007.966799, 1553.233995)"><g><path d="M 29.453125 0 L 29.453125 -249.34375 L 115.109375 -249.34375 C 128.878906 -249.34375 141.753906 -248.003906 153.734375 -245.328125 C 165.710938 -242.648438 176.164062 -238.1875 185.09375 -231.9375 C 194.019531 -225.6875 201.09375 -217.398438 206.3125 -207.078125 C 211.539062 -196.753906 214.15625 -184.070312 214.15625 -169.03125 C 214.15625 -154.5 211.539062 -141.878906 206.3125 -131.171875 C 201.09375 -120.460938 194.019531 -111.664062 185.09375 -104.78125 C 176.164062 -97.894531 165.835938 -92.796875 154.109375 -89.484375 C 142.390625 -86.171875 129.898438 -84.515625 116.640625 -84.515625 L 85.65625 -84.515625 L 85.65625 0 Z M 85.65625 -129.265625 L 113.203125 -129.265625 C 143.796875 -129.265625 159.09375 -142.519531 159.09375 -169.03125 C 159.09375 -182.03125 155.007812 -191.207031 146.84375 -196.5625 C 138.6875 -201.914062 126.960938 -204.59375 111.671875 -204.59375 L 85.65625 -204.59375 Z M 85.65625 -129.265625 "/></g></g></g><g fill="#ffd80e" fill-opacity="1"><g transform="translate(1235.891704, 1553.233995)"><g><path d="M 130.78125 4.59375 C 113.957031 4.59375 98.597656 1.597656 84.703125 -4.390625 C 70.804688 -10.390625 58.882812 -18.992188 48.9375 -30.203125 C 39 -41.421875 31.289062 -55.0625 25.8125 -71.125 C 20.332031 -87.1875 17.59375 -105.414062 17.59375 -125.8125 C 17.59375 -146.207031 20.332031 -164.375 25.8125 -180.3125 C 31.289062 -196.25 39 -209.632812 48.9375 -220.46875 C 58.882812 -231.300781 70.804688 -239.582031 84.703125 -245.3125 C 98.597656 -251.050781 113.957031 -253.921875 130.78125 -253.921875 C 147.613281 -253.921875 162.976562 -251.050781 176.875 -245.3125 C 190.769531 -239.582031 202.6875 -231.234375 212.625 -220.265625 C 222.570312 -209.304688 230.285156 -195.859375 235.765625 -179.921875 C 241.242188 -163.992188 243.984375 -145.957031 243.984375 -125.8125 C 243.984375 -105.414062 241.242188 -87.1875 235.765625 -71.125 C 230.285156 -55.0625 222.570312 -41.421875 212.625 -30.203125 C 202.6875 -18.992188 190.769531 -10.390625 176.875 -4.390625 C 162.976562 1.597656 147.613281 4.59375 130.78125 4.59375 Z M 130.78125 -43.984375 C 147.863281 -43.984375 161.375 -51.3125 171.3125 -65.96875 C 181.257812 -80.625 186.234375 -100.570312 186.234375 -125.8125 C 186.234375 -150.800781 181.257812 -170.304688 171.3125 -184.328125 C 161.375 -198.347656 147.863281 -205.359375 130.78125 -205.359375 C 113.707031 -205.359375 100.195312 -198.347656 90.25 -184.328125 C 80.3125 -170.304688 75.34375 -150.800781 75.34375 -125.8125 C 75.34375 -100.570312 80.3125 -80.625 90.25 -65.96875 C 100.195312 -51.3125 113.707031 -43.984375 130.78125 -43.984375 Z M 130.78125 -43.984375 "/></g></g></g><g fill="#ffd80e" fill-opacity="1"><g transform="translate(1497.469932, 1553.233995)"><g><path d="M 29.453125 0 L 29.453125 -249.34375 L 85.65625 -249.34375 L 85.65625 0 Z M 29.453125 0 "/></g></g></g><g fill="#ffd80e" fill-opacity="1"><g transform="translate(1612.579632, 1553.233995)"><g><path d="M 29.453125 0 L 29.453125 -249.34375 L 87.1875 -249.34375 L 152.203125 -125.4375 L 176.671875 -70.359375 L 178.203125 -70.359375 C 176.929688 -83.617188 175.46875 -98.40625 173.8125 -114.71875 C 172.15625 -131.039062 171.328125 -146.59375 171.328125 -161.375 L 171.328125 -249.34375 L 224.859375 -249.34375 L 224.859375 0 L 167.125 0 L 102.109375 -124.28125 L 77.625 -178.59375 L 76.109375 -178.59375 C 77.378906 -164.820312 78.84375 -150.03125 80.5 -134.21875 C 82.15625 -118.414062 82.984375 -103.125 82.984375 -88.34375 L 82.984375 0 Z M 29.453125 0 "/></g></g></g><g fill="#ffd80e" fill-opacity="1"><g transform="translate(1866.891778, 1553.233995)"><g><path d="M 78.015625 0 L 78.015625 -201.921875 L 9.5625 -201.921875 L 9.5625 -249.34375 L 203.0625 -249.34375 L 203.0625 -201.921875 L 134.609375 -201.921875 L 134.609375 0 Z M 78.015625 0 "/></g></g></g><g fill="#ffeded" fill-opacity="1"><g transform="translate(2079.517492, 1553.233995)"><g><path d="M 130.78125 4.59375 C 113.957031 4.59375 98.597656 1.597656 84.703125 -4.390625 C 70.804688 -10.390625 58.882812 -18.992188 48.9375 -30.203125 C 39 -41.421875 31.289062 -55.0625 25.8125 -71.125 C 20.332031 -87.1875 17.59375 -105.414062 17.59375 -125.8125 C 17.59375 -146.207031 20.332031 -164.375 25.8125 -180.3125 C 31.289062 -196.25 39 -209.632812 48.9375 -220.46875 C 58.882812 -231.300781 70.804688 -239.582031 84.703125 -245.3125 C 98.597656 -251.050781 113.957031 -253.921875 130.78125 -253.921875 C 147.613281 -253.921875 162.976562 -251.050781 176.875 -245.3125 C 190.769531 -239.582031 202.6875 -231.234375 212.625 -220.265625 C 222.570312 -209.304688 230.285156 -195.859375 235.765625 -179.921875 C 241.242188 -163.992188 243.984375 -145.957031 243.984375 -125.8125 C 243.984375 -105.414062 241.242188 -87.1875 235.765625 -71.125 C 230.285156 -55.0625 222.570312 -41.421875 212.625 -30.203125 C 202.6875 -18.992188 190.769531 -10.390625 176.875 -4.390625 C 162.976562 1.597656 147.613281 4.59375 130.78125 4.59375 Z M 130.78125 -43.984375 C 147.863281 -43.984375 161.375 -51.3125 171.3125 -65.96875 C 181.257812 -80.625 186.234375 -100.570312 186.234375 -125.8125 C 186.234375 -150.800781 181.257812 -170.304688 171.3125 -184.328125 C 161.375 -198.347656 147.863281 -205.359375 130.78125 -205.359375 C 113.707031 -205.359375 100.195312 -198.347656 90.25 -184.328125 C 80.3125 -170.304688 75.34375 -150.800781 75.34375 -125.8125 C 75.34375 -100.570312 80.3125 -80.625 90.25 -65.96875 C 100.195312 -51.3125 113.707031 -43.984375 130.78125 -43.984375 Z M 130.78125 -43.984375 "/></g></g></g><g fill="#ffeded" fill-opacity="1"><g transform="translate(2341.095719, 1553.233995)"><g><path d="M 29.453125 0 L 29.453125 -249.34375 L 186.625 -249.34375 L 186.625 -201.921875 L 85.65625 -201.921875 L 85.65625 -144.171875 L 172.09375 -144.171875 L 172.09375 -96.75 L 85.65625 -96.75 L 85.65625 0 Z M 29.453125 0 "/></g></g></g><g fill="#ffeded" fill-opacity="1"><g transform="translate(2541.486094, 1553.233995)"><g><path d="M 72.65625 0 L -2.671875 -249.34375 L 56.984375 -249.34375 L 86.8125 -133.078125 C 90.632812 -119.316406 94.007812 -106 96.9375 -93.125 C 99.875 -80.25 103.253906 -66.925781 107.078125 -53.15625 L 108.609375 -53.15625 C 112.179688 -66.925781 115.492188 -80.25 118.546875 -93.125 C 121.609375 -106 124.925781 -119.316406 128.5 -133.078125 L 157.9375 -249.34375 L 215.296875 -249.34375 L 140.34375 0 Z M 72.65625 0 "/></g></g></g><g fill="#ffeded" fill-opacity="1"><g transform="translate(2754.114008, 1553.233995)"><g><path d="M 29.453125 0 L 29.453125 -249.34375 L 85.65625 -249.34375 L 85.65625 0 Z M 29.453125 0 "/></g></g></g><g fill="#ffeded" fill-opacity="1"><g transform="translate(2869.223663, 1553.233995)"><g><path d="M 29.453125 0 L 29.453125 -249.34375 L 85.65625 -249.34375 L 85.65625 -47.421875 L 184.328125 -47.421875 L 184.328125 0 Z M 29.453125 0 "/></g></g></g><g fill="#ffeded" fill-opacity="1"><g transform="translate(3067.319504, 1553.233995)"><g><path d="M 29.453125 0 L 29.453125 -249.34375 L 91.015625 -249.34375 L 131.171875 -138.4375 C 133.722656 -131.039062 136.144531 -123.453125 138.4375 -115.671875 C 140.726562 -107.898438 143.148438 -100.191406 145.703125 -92.546875 L 147.234375 -92.546875 C 149.785156 -100.191406 152.144531 -107.898438 154.3125 -115.671875 C 156.476562 -123.453125 158.832031 -131.039062 161.375 -138.4375 L 200.765625 -249.34375 L 261.953125 -249.34375 L 261.953125 0 L 210.71875 0 L 210.71875 -91.40625 C 210.71875 -97.519531 210.972656 -104.269531 211.484375 -111.65625 C 211.992188 -119.050781 212.628906 -126.507812 213.390625 -134.03125 C 214.148438 -141.5625 214.910156 -148.957031 215.671875 -156.21875 C 216.441406 -163.488281 217.210938 -170.179688 217.984375 -176.296875 L 216.453125 -176.296875 L 196.1875 -117.015625 L 160.625 -21.796875 L 129.640625 -21.796875 L 94.078125 -117.015625 L 74.1875 -176.296875 L 72.65625 -176.296875 C 73.425781 -170.179688 74.191406 -163.488281 74.953125 -156.21875 C 75.722656 -148.957031 76.488281 -141.5625 77.25 -134.03125 C 78.007812 -126.507812 78.644531 -119.050781 79.15625 -111.65625 C 79.664062 -104.269531 79.921875 -97.519531 79.921875 -91.40625 L 79.921875 0 Z M 29.453125 0 "/></g></g></g></svg>